<?xml version="1.0" encoding="UTF-8"?>
<svg id="Layer_1" xmlns="http://www.w3.org/2000/svg" version="1.1" viewBox="0 0 168.5 41.38">
  <!-- Generator: Adobe Illustrator 29.8.5, SVG Export Plug-In . SVG Version: 2.1.1 Build 2)  -->
  <defs>
    <style>
      .st0 {
        fill: #fff;
      }

      .st1 {
        fill: #38b773;
      }
    </style>
  </defs>
  <path class="st0" d="M41.35,16.35c-.77-1.42-1.83-2.51-3.18-3.27-1.35-.76-2.9-1.14-4.64-1.14-1.43,0-2.78.27-4.08.82s-2.41,1.4-3.37,2.58c-.65.8-1.16,1.76-1.56,2.88-.58-1.92-1.38-3.38-2.4-4.37-1.3-1.27-2.95-1.9-4.94-1.9-1.27,0-2.49.26-3.64.77-1.15.51-2.16,1.32-3.02,2.41-.59.75-1.07,1.66-1.46,2.72l-.31-5.48H.62v27.77h8.75v-16.45c0-.97.17-1.8.52-2.49s.83-1.21,1.45-1.57c.62-.36,1.32-.54,2.11-.54,1.17,0,2.12.38,2.84,1.13.72.75,1.08,1.79,1.08,3.09v16.83h8.4v-16.6c0-.91.16-1.69.48-2.35.32-.66.78-1.18,1.4-1.55.61-.37,1.33-.55,2.15-.55,1.16,0,2.11.37,2.86,1.11.75.74,1.12,1.82,1.12,3.24v16.7h8.73v-18.69c0-1.98-.39-3.68-1.16-5.09Z"/>
  <path class="st1" d="M52.47,9.22c-1.29,0-2.38-.41-3.27-1.23-.89-.82-1.33-1.83-1.33-3.02s.44-2.22,1.33-3.04c.89-.82,1.98-1.23,3.27-1.23s2.36.41,3.25,1.23c.89.82,1.33,1.84,1.33,3.04s-.44,2.2-1.33,3.02c-.89.82-1.97,1.23-3.25,1.23Z"/>
  <rect class="st0" x="48.1" y="12.36" width="8.75" height="27.77"/>
  <path class="st0" d="M75.39,40.69c-2.9,0-5.4-.6-7.5-1.81s-3.71-2.89-4.84-5.04c-1.13-2.16-1.7-4.66-1.7-7.51s.57-5.38,1.7-7.53c1.13-2.15,2.75-3.83,4.84-5.03,2.1-1.2,4.6-1.8,7.5-1.8,1.81,0,3.47.24,4.97.72,1.5.48,2.82,1.17,3.95,2.06,1.13.9,2.04,1.97,2.73,3.22.69,1.25,1.12,2.65,1.31,4.21l-8.15,1.06c-.12-.72-.31-1.36-.58-1.91-.27-.55-.6-1.03-.99-1.42-.39-.39-.85-.69-1.37-.89s-1.1-.3-1.74-.3c-1.12,0-2.08.3-2.86.91-.78.6-1.38,1.47-1.79,2.6-.41,1.13-.62,2.49-.62,4.09s.21,2.91.62,4.06c.41,1.15,1.01,2.03,1.79,2.65.78.62,1.73.93,2.86.93.64,0,1.22-.1,1.75-.31.53-.21.99-.52,1.4-.92.4-.4.73-.9.99-1.48.26-.59.45-1.24.57-1.96l8.15,1.03c-.17,1.58-.6,3-1.28,4.28-.69,1.27-1.6,2.37-2.73,3.28-1.13.91-2.46,1.61-3.97,2.1-1.52.49-3.18.73-4.99.73Z"/>
  <path class="st0" d="M92.8,40.14V12.36h8.48v5.03h.25c.5-1.83,1.32-3.17,2.46-4.04,1.14-.86,2.51-1.3,4.1-1.3.42,0,.84.02,1.27.06s.83.1,1.19.19v7.52c-.4-.12-.94-.2-1.62-.26-.68-.06-1.3-.09-1.85-.09-1.07,0-2.03.24-2.87.7s-1.49,1.13-1.96,1.97c-.47.85-.7,1.85-.7,3.01v14.97h-8.75Z"/>
  <path class="st0" d="M121.25,40.64c-1.79,0-3.39-.31-4.78-.92-1.39-.61-2.48-1.52-3.27-2.73s-1.18-2.73-1.18-4.58c0-1.54.27-2.84.82-3.9.54-1.06,1.3-1.92,2.26-2.58.96-.66,2.08-1.17,3.33-1.52,1.26-.35,2.6-.59,4.03-.7,1.59-.13,2.88-.28,3.85-.44s1.68-.39,2.11-.7c.44-.31.65-.74.65-1.3v-.13c0-.62-.15-1.15-.45-1.6-.3-.44-.73-.78-1.3-1.02-.56-.23-1.25-.35-2.05-.35s-1.51.12-2.13.36c-.61.24-1.12.58-1.51,1.02-.39.44-.66.95-.79,1.53l-7.98-.8c.32-1.68,1.01-3.14,2.08-4.39,1.06-1.25,2.48-2.22,4.24-2.91,1.76-.69,3.84-1.03,6.24-1.03,1.78,0,3.42.21,4.93.62,1.51.41,2.82,1.01,3.94,1.81,1.11.8,1.98,1.77,2.59,2.93.61,1.16.92,2.49.92,4v18.82h-8.3v-3.9h-.2c-.5.96-1.14,1.76-1.9,2.41-.76.65-1.66,1.15-2.68,1.48-1.02.34-2.18.5-3.47.5ZM123.92,34.86c.97,0,1.86-.2,2.65-.59.8-.39,1.43-.94,1.89-1.63s.69-1.5.69-2.4v-2.64c-.24.13-.54.26-.91.36s-.77.21-1.21.31-.88.19-1.35.26-.91.15-1.35.21c-.84.12-1.56.32-2.16.6-.6.29-1.07.65-1.38,1.08-.32.44-.48.96-.48,1.58s.15,1.12.47,1.55c.31.43.73.75,1.27.97.54.22,1.16.33,1.86.33Z"/>
  <path class="st0" d="M151.32,40.64c-1.79,0-3.39-.31-4.78-.92-1.39-.61-2.48-1.52-3.27-2.73s-1.18-2.73-1.18-4.58c0-1.54.27-2.84.82-3.9.54-1.06,1.3-1.92,2.26-2.58.96-.66,2.08-1.17,3.33-1.52,1.26-.35,2.6-.59,4.03-.7,1.59-.13,2.88-.28,3.85-.44s1.68-.39,2.11-.7c.44-.31.65-.74.65-1.3v-.13c0-.62-.15-1.15-.45-1.6-.3-.44-.73-.78-1.3-1.02-.56-.23-1.25-.35-2.05-.35s-1.51.12-2.13.36c-.61.24-1.12.58-1.51,1.02-.39.44-.66.95-.79,1.53l-7.98-.8c.32-1.68,1.01-3.14,2.08-4.39,1.06-1.25,2.48-2.22,4.24-2.91,1.76-.69,3.84-1.03,6.24-1.03,1.78,0,3.42.21,4.93.62,1.51.41,2.82,1.01,3.94,1.81,1.11.8,1.98,1.77,2.59,2.93.61,1.16.92,2.49.92,4v18.82h-8.3v-3.9h-.2c-.5.96-1.14,1.76-1.9,2.41-.76.65-1.66,1.15-2.68,1.48-1.02.34-2.18.5-3.47.5ZM153.98,34.86c.97,0,1.86-.2,2.65-.59.8-.39,1.43-.94,1.89-1.63s.69-1.5.69-2.4v-2.64c-.24.13-.54.26-.91.36s-.77.21-1.21.31-.88.19-1.35.26-.91.15-1.35.21c-.84.12-1.56.32-2.16.6-.6.29-1.07.65-1.38,1.08-.32.44-.48.96-.48,1.58s.15,1.12.47,1.55c.31.43.73.75,1.27.97.54.22,1.16.33,1.86.33Z"/>
</svg>